# xmcd
#
# Track frame offsets:
# 150
# 17841
# 31810
# 50481
#
# Disc length: 903 seconds
#
#
# Revision: 0
# Processed by: cddbd v1.5.1PL2 Copyright (c) Steve Scherf et al.
# Submitted via: FreeRIP 2.945 
#
DISCID=28038504
DTITLE=t.A.T.u. - Robot
DYEAR=2006
DGENRE=Pop
TTITLE0=Robot (Album Version)
TTITLE1=Malchik Gey (That Black Radio Edit Mix)
TTITLE2=Robot (Vint Project Radio Mix)
TTITLE3=Robot (Club Version)
EXTD=
EXTT0=
EXTT1=
EXTT2=
EXTT3=
PLAYORDER=
